<svg width="24" height="24" viewBox="0 0 24 24" fill="none" xmlns="http://www.w3.org/2000/svg">
<path d="M15.7506 17.1605L17.7338 15.1772C18.0009 14.9134 18.3389 14.7329 18.7067 14.6574C19.0744 14.582 19.4562 14.6149 19.8056 14.7523L22.2227 15.7173C22.5757 15.8606 22.8785 16.1053 23.0928 16.4204C23.3071 16.7355 23.4233 17.107 23.4268 17.4881V21.9149C23.4247 22.1741 23.3702 22.4302 23.2666 22.6678C23.1629 22.9054 23.0123 23.1196 22.8237 23.2975C22.6351 23.4753 22.4124 23.6131 22.1692 23.7027C21.9259 23.7922 21.667 23.8316 21.4081 23.8184C4.47102 22.7649 1.0535 8.42189 0.407177 2.9326C0.377174 2.66304 0.404587 2.39018 0.487611 2.13197C0.570635 1.87376 0.707389 1.63606 0.888876 1.4345C1.07036 1.23294 1.29247 1.07209 1.54059 0.962537C1.7887 0.85298 2.0572 0.7972 2.32843 0.798864H6.60475C6.98636 0.799994 7.35889 0.915261 7.67445 1.12984C7.99001 1.34442 8.23416 1.6485 8.37549 2.00297L9.34054 4.42002C9.48243 4.76803 9.51862 5.15013 9.44462 5.5186C9.37061 5.88706 9.18968 6.22555 8.92442 6.49178L6.9412 8.47501C6.9412 8.47501 8.08332 16.2043 15.7506 17.1605Z" fill="#41495D"/>
</svg>
